<svg aria-hidden="true" style="width:0;height:0;position:absolute;overflow:hidden" xmlns="http://www.w3.org/2000/svg"><defs><symbol id="icon-cross" viewBox="0 0 32 32"><path d="M31.708 25.708 22 16l9.708-9.708a1 1 0 0 0 0-1.414L27.122.292a1 1 0 0 0-1.414-.001L16 9.999 6.292.291a.998.998 0 0 0-1.414.001L.292 4.878a1 1 0 0 0 0 1.414L10 16 .292 25.708a.999.999 0 0 0 0 1.414l4.586 4.586a1 1 0 0 0 1.414 0L16 22l9.708 9.708a1 1 0 0 0 1.414 0l4.586-4.586a.999.999 0 0 0 0-1.414z"/></symbol><symbol id="icon-menu" viewBox="0 0 32 32"><path d="M6.4 11.734V9.6h19.2v2.134H6.4zm0 5.332h19.2v-2.133H6.4v2.133zm0 5.334h19.2v-2.134H6.4V22.4z"/></symbol><symbol id="icon-logo" viewBox="0 0 33 32"><path d="M22.797 10.887H10.536C4.717 10.887 0 15.612 0 21.443S4.717 32 10.536 32h12.261c5.819 0 10.536-4.727 10.536-10.557s-4.717-10.556-10.536-10.556zm-.229 19.902c-5.149 0-9.325-4.184-9.325-9.345 0-5.16 4.176-9.345 9.325-9.345 5.151 0 9.325 4.185 9.325 9.347 0 5.16-4.176 9.344-9.325 9.344zM21.34 6.245v.015c0 1.338.352 2.594.969 3.681l-.019-.037c-2.961-.533-5.179-3.09-5.179-6.165 0-.404.038-.8.112-1.182l-.006.039a6.117 6.117 0 0 1 1.817-.27c1.101 0 2.135.285 3.033.785l-.032-.016c-.438.921-.693 2-.693 3.14v.011-.001zm8.269-2.512a6.264 6.264 0 0 1-4.432 5.995 6.2 6.2 0 0 1-1.379.253h-.003a6.198 6.198 0 0 1-1.229-3.721v-.016.001-.014a6.247 6.247 0 0 1 5.793-6.23l.02-.001a6.254 6.254 0 0 1 1.229 3.733z"/></symbol><symbol id="icon-logo-desk" viewBox="0 0 467 32"><path d="M2.576 2.677v26.656h5.861V17.834h10.789v11.499h5.861V2.677h-5.861v10.229H8.437V2.677H2.576zM35.848 2.677v26.656h20.235v-4.928H41.71v-6.533h12.917v-4.555H41.71V7.605h14.075V2.677H35.849zM72.376 19.029l3.472-9.781h.075l3.36 9.781h-6.907zm.56-16.352-10.08 26.656h5.899l2.091-5.936h9.968l2.016 5.936h6.085L78.947 2.677h-6.011zM96.814 2.677v26.656h18.853v-4.928h-12.992V2.677h-5.861zM127.015 7.605v21.728h5.861V7.605h7.989V2.677h-21.84v4.928h7.989zM149.539 2.677v26.656h5.861V17.834h10.789v11.499h5.861V2.677h-5.861v10.229H155.4V2.677h-5.861zM189.718 18.955v10.379h5.861V19.105l9.893-16.427h-6.533l-6.197 10.528-6.235-10.528h-6.571l9.781 16.277zM233.298 20.485h-5.675c-.025 1.643.274 3.061.896 4.256s1.456 2.178 2.501 2.949c1.07.771 2.29 1.331 3.659 1.68 1.394.373 2.825.56 4.293.56 1.817 0 3.41-.211 4.779-.635 1.394-.423 2.551-1.008 3.472-1.755.946-.771 1.655-1.68 2.128-2.725s.709-2.178.709-3.397c0-1.493-.324-2.713-.971-3.659-.622-.971-1.369-1.742-2.24-2.315s-1.755-.983-2.651-1.232c-.871-.274-1.556-.46-2.053-.56a599.512 599.512 0 0 1-4.069-1.045c-1.021-.274-1.829-.548-2.427-.821-.573-.274-.958-.572-1.157-.896s-.299-.747-.299-1.269c0-.572.124-1.045.373-1.419s.56-.684.933-.933c.398-.249.834-.423 1.307-.523s.946-.149 1.419-.149c.722 0 1.381.062 1.979.187.622.124 1.17.336 1.643.635s.846.709 1.12 1.232c.299.523.473 1.182.523 1.979h5.675c0-1.543-.299-2.85-.896-3.92-.573-1.095-1.357-1.991-2.352-2.688s-2.141-1.195-3.435-1.493a16.092 16.092 0 0 0-3.995-.485c-1.195 0-2.389.162-3.584.485s-2.265.821-3.211 1.493a8.086 8.086 0 0 0-2.315 2.539c-.573.996-.859 2.178-.859 3.547 0 1.22.224 2.265.672 3.136.473.846 1.083 1.556 1.829 2.128s1.593 1.045 2.539 1.419c.946.348 1.916.647 2.912.896.971.274 1.929.523 2.875.747s1.792.485 2.539.784 1.344.672 1.792 1.12c.473.448.709 1.033.709 1.755 0 .672-.174 1.232-.523 1.68-.349.423-.784.759-1.307 1.008s-1.083.423-1.68.523c-.597.075-1.157.112-1.68.112a9.523 9.523 0 0 1-2.24-.261 6.32 6.32 0 0 1-1.904-.859c-.523-.398-.946-.908-1.269-1.531s-.485-1.381-.485-2.277zM284.533 29.333l7.168-26.656h-5.749l-4.368 18.368h-.075l-4.555-18.368h-5.488l-4.629 18.144h-.075l-4.217-18.144h-5.861l7.056 26.656h5.935l4.443-18.144h.075l4.517 18.144h5.824zM300.003 2.677v26.656h5.861V2.677h-5.861zM322.512 7.605v21.728h5.861V7.605h7.989V2.677h-21.84v4.928h7.989zM362.808 11.637h5.675c-.176-1.543-.597-2.912-1.269-4.107s-1.531-2.19-2.576-2.987a10.829 10.829 0 0 0-3.509-1.867 13.273 13.273 0 0 0-4.144-.635c-2.043 0-3.883.361-5.525 1.083-1.619.722-2.987 1.717-4.107 2.987s-1.979 2.763-2.576 4.48c-.597 1.692-.896 3.534-.896 5.525 0 1.941.299 3.758.896 5.451.597 1.668 1.456 3.124 2.576 4.368s2.488 2.227 4.107 2.949c1.643.697 3.483 1.045 5.525 1.045 1.643 0 3.147-.249 4.517-.747a10.487 10.487 0 0 0 3.584-2.165c1.019-.946 1.84-2.091 2.464-3.435.621-1.344 1.008-2.85 1.157-4.517h-5.675c-.224 1.792-.848 3.236-1.867 4.331-.997 1.095-2.389 1.643-4.181 1.643-1.32 0-2.44-.249-3.36-.747a6.555 6.555 0 0 1-2.24-2.053 9.108 9.108 0 0 1-1.269-2.837 14.333 14.333 0 0 1-.373-3.285c0-1.17.123-2.302.373-3.397.272-1.095.696-2.066 1.269-2.912a6.089 6.089 0 0 1 2.24-2.053c.92-.523 2.04-.784 3.36-.784.72 0 1.405.124 2.053.373a5.675 5.675 0 0 1 3.099 2.464c.347.548.571 1.157.672 1.829zM378.309 2.677v26.656h5.861V17.834h10.789v11.499h5.861V2.677h-5.861v10.229H384.17V2.677h-5.861zM411.581 2.677v26.656h20.235v-4.928h-14.373v-6.533h12.917v-4.555h-12.917V7.605h14.075V2.677h-19.936zM447.251 14.736V7.232h6.421c1.344 0 2.352.299 3.024.896.672.572 1.008 1.506 1.008 2.8 0 1.344-.336 2.315-1.008 2.912s-1.68.896-3.024.896h-6.421zm-5.862-12.059v26.656h5.861V18.917h5.861c1.467 0 2.525.324 3.173.971.645.647 1.069 1.668 1.269 3.061.149 1.07.261 2.19.336 3.36s.272 2.178.597 3.024h5.861a4.185 4.185 0 0 1-.635-1.344 17.512 17.512 0 0 1-.299-1.717 40.558 40.558 0 0 1-.112-1.755c-.027-.572-.051-1.07-.075-1.493a14.156 14.156 0 0 0-.299-2.016 6.12 6.12 0 0 0-.635-1.829 4.776 4.776 0 0 0-1.157-1.456c-.475-.423-1.072-.734-1.792-.933v-.075c1.493-.597 2.563-1.468 3.211-2.613.672-1.145 1.008-2.501 1.008-4.069 0-1.02-.187-1.966-.56-2.837a6.527 6.527 0 0 0-1.568-2.352c-.672-.672-1.493-1.195-2.464-1.568-.947-.398-2.016-.597-3.211-.597h-14.373z"/></symbol><symbol id="icon-phone" viewBox="0 0 32 32"><path d="M22 20c-2 2-2 4-4 4s-4-2-6-4-4-4-4-6 2-2 4-4-4-8-6-8-6 6-6 6c0 4 4.109 12.109 8 16s12 8 16 8c0 0 6-4 6-6s-6-8-8-6z"/></symbol><symbol id="icon-compass" viewBox="0 0 32 32"><path d="M17 32a1 1 0 0 1-1-1V16H1a1 1 0 0 1-.423-1.906l30-14a1 1 0 0 1 1.329 1.329l-14 30A1 1 0 0 1 17 32zM5.508 14H17a1 1 0 0 1 1 1v11.492L28.931 3.069 5.508 14z"/></symbol><symbol id="icon-clock" viewBox="0 0 32 32"><path d="M20.586 23.414 14 16.828V8h4v7.172l5.414 5.414zM16 0C7.163 0 0 7.163 0 16s7.163 16 16 16 16-7.163 16-16S24.837 0 16 0zm0 28C9.373 28 4 22.627 4 16S9.373 4 16 4s12 5.373 12 12-5.373 12-12 12z"/></symbol><symbol id="icon-star-empty" viewBox="0 0 32 32"><path d="m32 12.408-11.056-1.607L16 .783l-4.944 10.018L0 12.408l8 7.798-1.889 11.011L16 26.018l9.889 5.199L24 20.206l8-7.798zM16 23.547l-6.983 3.671 1.334-7.776-5.65-5.507 7.808-1.134 3.492-7.075 3.492 7.075 7.807 1.134-5.65 5.507 1.334 7.776-6.983-3.671z"/></symbol><symbol id="icon-star-half" viewBox="0 0 32 32"><path d="m32 12.408-11.056-1.607L16 .783l-4.944 10.018L0 12.408l8 7.798-1.889 11.011L16 26.018l9.889 5.199L24 20.206l8-7.798zM16 23.547l-.029.015L16 5.725l3.492 7.075 7.807 1.134-5.65 5.507 1.334 7.776L16 23.546z"/></symbol><symbol id="icon-star-full" viewBox="0 0 32 32"><path d="m32 12.408-11.056-1.607L16 .783l-4.944 10.018L0 12.408l8 7.798-1.889 11.011L16 26.018l9.889 5.199L24 20.206l8-7.798z"/></symbol><symbol id="icon-redo" viewBox="0 0 32 32"><path d="M18 7.762V0l12 12-12 12v-7.932C4.039 15.74 4.638 25.561 8.192 32-.58 22.518 1.283 7.326 18 7.762z"/></symbol><symbol id="icon-bubbles" viewBox="0 0 36 32"><path d="M15 0c8.284 0 15 5.435 15 12.139s-6.716 12.139-15 12.139c-.796 0-1.576-.051-2.339-.147C9.439 27.34 5.718 27.916 2 28v-.785c2.008-.98 3.625-2.765 3.625-4.804 0-.285-.022-.564-.063-.837C2.17 19.349 0 15.949 0 12.14 0 5.436 6.716.001 15 .001zm16.125 27.209c0 1.748 1.135 3.278 2.875 4.118V32c-3.223-.072-6.181-.566-8.973-3.316-.661.083-1.337.126-2.027.126-2.983 0-5.732-.805-7.925-2.157 4.521-.016 8.789-1.464 12.026-4.084 1.631-1.32 2.919-2.87 3.825-4.605.961-1.84 1.449-3.799 1.449-5.825 0-.326-.014-.651-.039-.974C34.604 13.038 36 15.591 36 18.405c0 3.265-1.88 6.179-4.82 8.086a4.722 4.722 0 0 0-.055.718z"/></symbol><symbol id="icon-arrow-left" viewBox="0 0 32 32"><path d="m12.586 27.414-10-10a2 2 0 0 1 0-2.828l10-10a2 2 0 1 1 2.828 2.828L8.828 14H28a2 2 0 1 1 0 4H8.828l6.586 6.586c.39.39.586.902.586 1.414s-.195 1.024-.586 1.414a2 2 0 0 1-2.828 0z"/></symbol><symbol id="icon-eye" viewBox="0 0 32 32"><path d="M16 6C9.021 6 2.972 10.064 0 16c2.972 5.936 9.021 10 16 10s13.027-4.064 16-10c-2.972-5.936-9.021-10-16-10zm7.889 5.303A15.212 15.212 0 0 1 28.559 16a15.223 15.223 0 0 1-4.67 4.697C21.527 22.204 18.799 23 16 23s-5.527-.796-7.889-2.303A15.212 15.212 0 0 1 3.441 16a15.223 15.223 0 0 1 5.041-4.925 8 8 0 1 0 15.036 0c.124.074.248.15.371.228zM16 13a3 3 0 1 1-6 0 3 3 0 0 1 6 0z"/></symbol><symbol id="icon-twitter" viewBox="0 0 32 32"><path d="M32 7.075a12.941 12.941 0 0 1-3.769 1.031 6.601 6.601 0 0 0 2.887-3.631 13.21 13.21 0 0 1-4.169 1.594A6.565 6.565 0 0 0 22.155 4a6.563 6.563 0 0 0-6.563 6.563c0 .512.056 1.012.169 1.494A18.635 18.635 0 0 1 2.23 5.195a6.56 6.56 0 0 0-.887 3.3 6.557 6.557 0 0 0 2.919 5.463 6.565 6.565 0 0 1-2.975-.819v.081a6.565 6.565 0 0 0 5.269 6.437 6.574 6.574 0 0 1-2.968.112 6.588 6.588 0 0 0 6.131 4.563 13.17 13.17 0 0 1-9.725 2.719 18.568 18.568 0 0 0 10.069 2.95c12.075 0 18.681-10.006 18.681-18.681 0-.287-.006-.569-.019-.85A13.216 13.216 0 0 0 32 7.076z"/></symbol><symbol id="icon-instagram" viewBox="0 0 32 32"><path d="M16 2.881c4.275 0 4.781.019 6.462.094 1.563.069 2.406.331 2.969.55a4.952 4.952 0 0 1 1.837 1.194 5.015 5.015 0 0 1 1.2 1.838c.219.563.481 1.412.55 2.969.075 1.688.094 2.194.094 6.463s-.019 4.781-.094 6.463c-.069 1.563-.331 2.406-.55 2.969a4.94 4.94 0 0 1-1.194 1.837 5.02 5.02 0 0 1-1.837 1.2c-.563.219-1.413.481-2.969.55-1.688.075-2.194.094-6.463.094s-4.781-.019-6.463-.094c-1.563-.069-2.406-.331-2.969-.55a4.952 4.952 0 0 1-1.838-1.194 5.02 5.02 0 0 1-1.2-1.837c-.219-.563-.481-1.413-.55-2.969-.075-1.688-.094-2.194-.094-6.463s.019-4.781.094-6.463c.069-1.563.331-2.406.55-2.969a4.964 4.964 0 0 1 1.194-1.838 5.015 5.015 0 0 1 1.838-1.2c.563-.219 1.412-.481 2.969-.55 1.681-.075 2.188-.094 6.463-.094zM16 0c-4.344 0-4.887.019-6.594.094-1.7.075-2.869.35-3.881.744-1.056.412-1.95.956-2.837 1.85a7.833 7.833 0 0 0-1.85 2.831C.444 6.538.169 7.7.094 9.4.019 11.113 0 11.656 0 16s.019 4.887.094 6.594c.075 1.7.35 2.869.744 3.881.413 1.056.956 1.95 1.85 2.837a7.82 7.82 0 0 0 2.831 1.844c1.019.394 2.181.669 3.881.744 1.706.075 2.25.094 6.594.094s4.888-.019 6.594-.094c1.7-.075 2.869-.35 3.881-.744 1.05-.406 1.944-.956 2.831-1.844s1.438-1.781 1.844-2.831c.394-1.019.669-2.181.744-3.881.075-1.706.094-2.25.094-6.594s-.019-4.887-.094-6.594c-.075-1.7-.35-2.869-.744-3.881a7.506 7.506 0 0 0-1.831-2.844A7.82 7.82 0 0 0 26.482.843C25.463.449 24.301.174 22.601.099c-1.712-.081-2.256-.1-6.6-.1z"/><path d="M16 7.781c-4.537 0-8.219 3.681-8.219 8.219s3.681 8.219 8.219 8.219 8.219-3.681 8.219-8.219A8.221 8.221 0 0 0 16 7.781zm0 13.55a5.331 5.331 0 1 1 0-10.663 5.331 5.331 0 0 1 0 10.663zM26.462 7.456a1.919 1.919 0 1 1-3.838 0 1.919 1.919 0 0 1 3.838 0z"/></symbol><symbol id="icon-facebook" viewBox="0 0 32 32"><path d="M19 6h5V0h-5c-3.86 0-7 3.14-7 7v3H8v6h4v16h6V16h5l1-6h-6V7c0-.542.458-1 1-1z"/></symbol><symbol id="icon-modal-mail" viewBox="0 0 32 32"><path d="M26.667 5.333H5.334A2.663 2.663 0 0 0 2.681 8l-.013 16c0 1.467 1.2 2.667 2.667 2.667h21.333c1.467 0 2.667-1.2 2.667-2.667V8c0-1.467-1.2-2.667-2.667-2.667zM26.133 11l-9.427 5.893a1.346 1.346 0 0 1-1.413 0L5.866 11a1.132 1.132 0 1 1 1.2-1.92l8.933 5.587 8.933-5.587a1.132 1.132 0 1 1 1.2 1.92z"/></symbol><symbol id="icon-modale-tel" viewBox="0 0 32 32"><path d="m24.882 19.773-3.268-.373a2.561 2.561 0 0 0-2.11.733L17.137 22.5a19.357 19.357 0 0 1-8.478-8.478l2.38-2.38a2.561 2.561 0 0 0 .733-2.11l-.373-3.242a2.575 2.575 0 0 0-2.56-2.277H6.613c-1.454 0-2.663 1.209-2.573 2.663.682 10.987 9.469 19.761 20.443 20.443 1.454.09 2.663-1.119 2.663-2.573V22.32a2.549 2.549 0 0 0-2.264-2.547z"/></symbol><symbol id="icon-modal-name" viewBox="0 0 32 32"><path d="M16 16c2.947 0 5.333-2.387 5.333-5.333S18.946 5.334 16 5.334c-2.947 0-5.333 2.387-5.333 5.333S13.054 16 16 16zm0 2.667c-3.56 0-10.667 1.787-10.667 5.333v1.333c0 .733.6 1.333 1.333 1.333h18.667c.733 0 1.333-.6 1.333-1.333V24c0-3.547-7.107-5.333-10.667-5.333z"/></symbol><symbol id="icon-checkbox" viewBox="0 0 42 32"><path d="m6.263 15.205-.22-.21-3.307 3.132 11.651 11.114L38.864 5.89l-3.285-3.134-21.192 20.197-8.124-7.75z"/></symbol></defs></svg>