<svg version="1.0" xmlns="http://www.w3.org/2000/svg" width="682.667" height="682.667" viewBox="0 0 512 512"><path d="M180.5 1.4c-22.5 4.7-40 17.2-52 37.1-12.9 21.5-14.8 49.2-4.8 72 6 13.5 4.3 11.8 91.4 99.8 35 35.3 37.6 37.7 40.9 37.7 3.3 0 6.1-2.6 45.8-42.7 72.7-73.5 77.4-78.3 81.8-85.9 8.1-13.7 11.5-27.2 10.9-43.4-1.4-36.1-27-67.3-61-74.3-26.2-5.3-51.5 2-70.8 20.7-3.2 3.1-6 5.6-6.3 5.6-.4 0-3.8-3-7.7-6.6-8.9-8.2-18.3-13.8-29.5-17.7-7.4-2.5-10.5-3-20.7-3.2-7-.2-14.5.2-18 .9z"/><path d="M16.2 205.2c-5.8 15.4-8.6 27.4-10.6 44.8-1.3 11.1-1.3 31.4-.2 41.5 9 76.8 56.2 138 121.6 157.8 6.3 1.9 13.1 3.8 15 4.1 7.9 1.2 17.7 2.7 21 3.1 4.2.5 29.8.6 35.5.1 5.3-.5 19.2-2.5 21.5-3.1 4.3-1.2 8.3-1.6 9-.9.5.5 1.1 3.7 1.4 7.2.8 8.9 2.4 14.7 6.2 22.7 4 8.5 9.7 14.5 17.1 18.2 5.5 2.7 5.8 2.7 27.2 2.7 25.2.1 37.9-.8 53.6-3.9 16.2-3.1 22.4-4.7 35.5-9.1 41.4-14 74.6-40.1 99.5-78.4 17.7-27.1 30.7-61.1 35.1-91.5.3-2.2.7-5.1 1-6.5 2.3-13.1 2.3-49.9-.1-63-.3-1.4-.7-4.1-1-6-.3-1.9-.8-4.6-1-6-.3-1.4-.7-3.5-1-4.8-1.7-9.2-10.2-34.5-11.4-34-.3.2-5.1 3.3-10.6 7-8.8 5.8-27 15.6-37.5 20.1-11.9 5.2-36.6 12.4-48 14.1-1.9.3-5.7 1-8.5 1.5-2.7.6-6.8 1.3-9 1.6-5.9.8-26 5.3-34 7.6-35.4 10.2-63.9 28.2-81.9 51.9-5.8 7.6-7.4 10.3-12.1 19.8-3.8 7.6-4.2 8.1-5.2 6-.6-1.3-2.6-5.5-4.4-9.3-7.4-15.5-16.4-28.1-29.3-41.1-18.4-18.3-41.5-30.3-72.1-37.2-10.1-2.4-10.4-2.4-27-5.3-34.8-6-63-16.6-86.1-32.5-3.6-2.4-6.7-4.4-6.9-4.4-.2 0-1.2 2.4-2.3 5.2z"/></svg>