<svg aria-hidden="true" style="position: absolute; width: 0; height: 0; overflow: hidden;" version="1.1" xmlns="http://www.w3.org/2000/svg" xmlns:xlink="http://www.w3.org/1999/xlink">
<defs>
<symbol id="icon-cross" viewBox="0 0 32 32">
<path d="M31.708 25.708c-0-0-0-0-0-0l-9.708-9.708 9.708-9.708c0-0 0-0 0-0 0.105-0.105 0.18-0.227 0.229-0.357 0.133-0.356 0.057-0.771-0.229-1.057l-4.586-4.586c-0.286-0.286-0.702-0.361-1.057-0.229-0.13 0.048-0.252 0.124-0.357 0.228 0 0-0 0-0 0l-9.708 9.708-9.708-9.708c-0-0-0-0-0-0-0.105-0.104-0.227-0.18-0.357-0.228-0.356-0.133-0.771-0.057-1.057 0.229l-4.586 4.586c-0.286 0.286-0.361 0.702-0.229 1.057 0.049 0.13 0.124 0.252 0.229 0.357 0 0 0 0 0 0l9.708 9.708-9.708 9.708c-0 0-0 0-0 0-0.104 0.105-0.18 0.227-0.229 0.357-0.133 0.355-0.057 0.771 0.229 1.057l4.586 4.586c0.286 0.286 0.702 0.361 1.057 0.229 0.13-0.049 0.252-0.124 0.357-0.229 0-0 0-0 0-0l9.708-9.708 9.708 9.708c0 0 0 0 0 0 0.105 0.105 0.227 0.18 0.357 0.229 0.356 0.133 0.771 0.057 1.057-0.229l4.586-4.586c0.286-0.286 0.362-0.702 0.229-1.057-0.049-0.13-0.124-0.252-0.229-0.357z"></path>
</symbol>
<symbol id="icon-menu" viewBox="0 0 32 32">
 <path d="M6.4 11.734v-2.134h19.2v2.134h-19.2zM6.4 17.066h19.2v-2.133h-19.2v2.133zM6.4 22.4h19.2v-2.134h-19.2v2.134z"></path>
</symbol>
<symbol id="icon-logo" viewBox="0 0 33 32">
<path d="M22.797 10.887h-12.261c-5.819 0-10.536 4.725-10.536 10.556s4.717 10.557 10.536 10.557h12.261c5.819 0 10.536-4.727 10.536-10.557s-4.717-10.556-10.536-10.556zM22.568 30.789c-5.149 0-9.325-4.184-9.325-9.345 0-5.16 4.176-9.345 9.325-9.345 5.151 0 9.325 4.185 9.325 9.347 0 5.16-4.176 9.344-9.325 9.344zM21.34 6.245c0 0.004 0 0.010 0 0.015 0 1.338 0.352 2.594 0.969 3.681l-0.019-0.037c-2.961-0.533-5.179-3.090-5.179-6.165 0-0.404 0.038-0.8 0.112-1.182l-0.006 0.039c0.543-0.171 1.168-0.27 1.817-0.27 1.101 0 2.135 0.285 3.033 0.785l-0.032-0.016c-0.438 0.921-0.693 2-0.693 3.14 0 0.004 0 0.008 0 0.011v-0.001zM29.609 3.733c0 2.827-1.867 5.215-4.432 5.995-0.441 0.133-0.901 0.221-1.379 0.253h-0.003c-0.768-1.026-1.229-2.319-1.229-3.721 0-0.005 0-0.011 0-0.016v0.001c0-0.004 0-0.009 0-0.014 0-3.297 2.555-5.998 5.793-6.23l0.020-0.001c0.772 1.043 1.229 2.335 1.229 3.733z"></path>
</symbol>
<symbol id="icon-logo-desk" viewBox="0 0 467 32">
<path d="M2.576 2.677v26.656h5.861v-11.499h10.789v11.499h5.861v-26.656h-5.861v10.229h-10.789v-10.229h-5.861z"></path>
<path d="M35.848 2.677v26.656h20.235v-4.928h-14.373v-6.533h12.917v-4.555h-12.917v-5.712h14.075v-4.928h-19.936z"></path>
<path d="M72.376 19.029l3.472-9.781h0.075l3.36 9.781h-6.907zM72.936 2.677l-10.080 26.656h5.899l2.091-5.936h9.968l2.016 5.936h6.085l-9.968-26.656h-6.011z"></path>
<path d="M96.814 2.677v26.656h18.853v-4.928h-12.992v-21.728h-5.861z"></path>
<path d="M127.015 7.605v21.728h5.861v-21.728h7.989v-4.928h-21.84v4.928h7.989z"></path>
<path d="M149.539 2.677v26.656h5.861v-11.499h10.789v11.499h5.861v-26.656h-5.861v10.229h-10.789v-10.229h-5.861z"></path>
<path d="M189.718 18.955v10.379h5.861v-10.229l9.893-16.427h-6.533l-6.197 10.528-6.235-10.528h-6.571l9.781 16.277z"></path>
<path d="M233.298 20.485h-5.675c-0.025 1.643 0.274 3.061 0.896 4.256s1.456 2.178 2.501 2.949c1.070 0.771 2.29 1.331 3.659 1.68 1.394 0.373 2.825 0.56 4.293 0.56 1.817 0 3.41-0.211 4.779-0.635 1.394-0.423 2.551-1.008 3.472-1.755 0.946-0.771 1.655-1.68 2.128-2.725s0.709-2.178 0.709-3.397c0-1.493-0.324-2.713-0.971-3.659-0.622-0.971-1.369-1.742-2.24-2.315s-1.755-0.983-2.651-1.232c-0.871-0.274-1.556-0.46-2.053-0.56-1.668-0.423-3.024-0.772-4.069-1.045-1.021-0.274-1.829-0.548-2.427-0.821-0.573-0.274-0.958-0.572-1.157-0.896s-0.299-0.747-0.299-1.269c0-0.572 0.124-1.045 0.373-1.419s0.56-0.684 0.933-0.933c0.398-0.249 0.834-0.423 1.307-0.523s0.946-0.149 1.419-0.149c0.722 0 1.381 0.062 1.979 0.187 0.622 0.124 1.17 0.336 1.643 0.635s0.846 0.709 1.12 1.232c0.299 0.523 0.473 1.182 0.523 1.979h5.675c0-1.543-0.299-2.85-0.896-3.92-0.573-1.095-1.357-1.991-2.352-2.688s-2.141-1.195-3.435-1.493c-1.269-0.324-2.601-0.485-3.995-0.485-1.195 0-2.389 0.162-3.584 0.485s-2.265 0.821-3.211 1.493c-0.946 0.672-1.717 1.518-2.315 2.539-0.573 0.996-0.859 2.178-0.859 3.547 0 1.22 0.224 2.265 0.672 3.136 0.473 0.846 1.083 1.556 1.829 2.128s1.593 1.045 2.539 1.419c0.946 0.348 1.916 0.647 2.912 0.896 0.971 0.274 1.929 0.523 2.875 0.747s1.792 0.485 2.539 0.784 1.344 0.672 1.792 1.12c0.473 0.448 0.709 1.033 0.709 1.755 0 0.672-0.174 1.232-0.523 1.68-0.349 0.423-0.784 0.759-1.307 1.008s-1.083 0.423-1.68 0.523c-0.597 0.075-1.157 0.112-1.68 0.112-0.772 0-1.518-0.087-2.24-0.261-0.722-0.199-1.357-0.485-1.904-0.859-0.523-0.398-0.946-0.908-1.269-1.531s-0.485-1.381-0.485-2.277z"></path>
<path d="M284.533 29.333l7.168-26.656h-5.749l-4.368 18.368h-0.075l-4.555-18.368h-5.488l-4.629 18.144h-0.075l-4.217-18.144h-5.861l7.056 26.656h5.935l4.443-18.144h0.075l4.517 18.144h5.824z"></path>
<path d="M300.003 2.677v26.656h5.861v-26.656h-5.861z"></path>
<path d="M322.512 7.605v21.728h5.861v-21.728h7.989v-4.928h-21.84v4.928h7.989z"></path>
<path d="M362.808 11.637h5.675c-0.176-1.543-0.597-2.912-1.269-4.107s-1.531-2.19-2.576-2.987c-1.021-0.821-2.192-1.444-3.509-1.867-1.296-0.423-2.677-0.635-4.144-0.635-2.043 0-3.883 0.361-5.525 1.083-1.619 0.722-2.987 1.717-4.107 2.987s-1.979 2.763-2.576 4.48c-0.597 1.692-0.896 3.534-0.896 5.525 0 1.941 0.299 3.758 0.896 5.451 0.597 1.668 1.456 3.124 2.576 4.368s2.488 2.227 4.107 2.949c1.643 0.697 3.483 1.045 5.525 1.045 1.643 0 3.147-0.249 4.517-0.747 1.368-0.498 2.563-1.219 3.584-2.165 1.019-0.946 1.84-2.091 2.464-3.435 0.621-1.344 1.008-2.85 1.157-4.517h-5.675c-0.224 1.792-0.848 3.236-1.867 4.331-0.997 1.095-2.389 1.643-4.181 1.643-1.32 0-2.44-0.249-3.36-0.747-0.923-0.523-1.669-1.207-2.24-2.053-0.573-0.846-0.997-1.792-1.269-2.837-0.251-1.070-0.373-2.165-0.373-3.285 0-1.17 0.123-2.302 0.373-3.397 0.272-1.095 0.696-2.066 1.269-2.912 0.571-0.871 1.317-1.556 2.24-2.053 0.92-0.523 2.040-0.784 3.36-0.784 0.72 0 1.405 0.124 2.053 0.373 0.672 0.224 1.269 0.548 1.792 0.971s0.957 0.921 1.307 1.493c0.347 0.548 0.571 1.157 0.672 1.829z"></path>
<path d="M378.309 2.677v26.656h5.861v-11.499h10.789v11.499h5.861v-26.656h-5.861v10.229h-10.789v-10.229h-5.861z"></path>
<path d="M411.581 2.677v26.656h20.235v-4.928h-14.373v-6.533h12.917v-4.555h-12.917v-5.712h14.075v-4.928h-19.936z"></path>
<path d="M447.251 14.736v-7.504h6.421c1.344 0 2.352 0.299 3.024 0.896 0.672 0.572 1.008 1.506 1.008 2.8 0 1.344-0.336 2.315-1.008 2.912s-1.68 0.896-3.024 0.896h-6.421zM441.389 2.677v26.656h5.861v-10.416h5.861c1.467 0 2.525 0.324 3.173 0.971 0.645 0.647 1.069 1.668 1.269 3.061 0.149 1.070 0.261 2.19 0.336 3.36s0.272 2.178 0.597 3.024h5.861c-0.275-0.373-0.485-0.821-0.635-1.344-0.125-0.547-0.224-1.12-0.299-1.717-0.051-0.597-0.088-1.182-0.112-1.755-0.027-0.572-0.051-1.070-0.075-1.493-0.051-0.672-0.149-1.344-0.299-2.016-0.125-0.672-0.336-1.282-0.635-1.829-0.299-0.572-0.685-1.058-1.157-1.456-0.475-0.423-1.072-0.734-1.792-0.933v-0.075c1.493-0.597 2.563-1.468 3.211-2.613 0.672-1.145 1.008-2.501 1.008-4.069 0-1.020-0.187-1.966-0.56-2.837-0.349-0.896-0.872-1.68-1.568-2.352-0.672-0.672-1.493-1.195-2.464-1.568-0.947-0.398-2.016-0.597-3.211-0.597h-14.373z"></path>
</symbol>
<symbol id="icon-phone" viewBox="0 0 32 32">
<path d="M22 20c-2 2-2 4-4 4s-4-2-6-4-4-4-4-6 2-2 4-4-4-8-6-8-6 6-6 6c0 4 4.109 12.109 8 16s12 8 16 8c0 0 6-4 6-6s-6-8-8-6z"></path>
</symbol>
<symbol id="icon-compass" viewBox="0 0 32 32">
<path d="M17 32c-0.072 0-0.144-0.008-0.217-0.024-0.458-0.102-0.783-0.507-0.783-0.976v-15h-15c-0.469 0-0.875-0.326-0.976-0.783s0.129-0.925 0.553-1.123l30-14c0.381-0.178 0.833-0.098 1.13 0.199s0.377 0.749 0.199 1.13l-14 30c-0.167 0.358-0.524 0.577-0.906 0.577zM5.508 14h11.492c0.552 0 1 0.448 1 1v11.492l10.931-23.423-23.423 10.931z"></path>
</symbol>
<symbol id="icon-clock" viewBox="0 0 32 32">
<path d="M20.586 23.414l-6.586-6.586v-8.828h4v7.172l5.414 5.414zM16 0c-8.837 0-16 7.163-16 16s7.163 16 16 16 16-7.163 16-16-7.163-16-16-16zM16 28c-6.627 0-12-5.373-12-12s5.373-12 12-12c6.627 0 12 5.373 12 12s-5.373 12-12 12z"></path>
</symbol>
<symbol id="icon-star-empty" viewBox="0 0 32 32">
<path d="M32 12.408l-11.056-1.607-4.944-10.018-4.944 10.018-11.056 1.607 8 7.798-1.889 11.011 9.889-5.199 9.889 5.199-1.889-11.011 8-7.798zM16 23.547l-6.983 3.671 1.334-7.776-5.65-5.507 7.808-1.134 3.492-7.075 3.492 7.075 7.807 1.134-5.65 5.507 1.334 7.776-6.983-3.671z"></path>
</symbol>
<symbol id="icon-star-half" viewBox="0 0 32 32">
<path d="M32 12.408l-11.056-1.607-4.944-10.018-4.944 10.018-11.056 1.607 8 7.798-1.889 11.011 9.889-5.199 9.889 5.199-1.889-11.011 8-7.798zM16 23.547l-0.029 0.015 0.029-17.837 3.492 7.075 7.807 1.134-5.65 5.507 1.334 7.776-6.983-3.671z"></path>
</symbol>
<symbol id="icon-star-full" viewBox="0 0 32 32">
<path d="M32 12.408l-11.056-1.607-4.944-10.018-4.944 10.018-11.056 1.607 8 7.798-1.889 11.011 9.889-5.199 9.889 5.199-1.889-11.011 8-7.798z"></path>
</symbol>
<symbol id="icon-redo" viewBox="0 0 32 32">
<path d="M18 7.762v-7.762l12 12-12 12v-7.932c-13.961-0.328-13.362 9.493-9.808 15.932-8.772-9.482-6.909-24.674 9.808-24.238z"></path>
</symbol>
<symbol id="icon-bubbles" viewBox="0 0 36 32">
<path d="M15 0v0c8.284 0 15 5.435 15 12.139s-6.716 12.139-15 12.139c-0.796 0-1.576-0.051-2.339-0.147-3.222 3.209-6.943 3.785-10.661 3.869v-0.785c2.008-0.98 3.625-2.765 3.625-4.804 0-0.285-0.022-0.564-0.063-0.837-3.392-2.225-5.562-5.625-5.562-9.434 0-6.704 6.716-12.139 15-12.139zM31.125 27.209c0 1.748 1.135 3.278 2.875 4.118v0.673c-3.223-0.072-6.181-0.566-8.973-3.316-0.661 0.083-1.337 0.126-2.027 0.126-2.983 0-5.732-0.805-7.925-2.157 4.521-0.016 8.789-1.464 12.026-4.084 1.631-1.32 2.919-2.87 3.825-4.605 0.961-1.84 1.449-3.799 1.449-5.825 0-0.326-0.014-0.651-0.039-0.974 2.268 1.873 3.664 4.426 3.664 7.24 0 3.265-1.88 6.179-4.82 8.086-0.036 0.234-0.055 0.474-0.055 0.718z"></path>
</symbol>
<symbol id="icon-arrow-left" viewBox="0 0 32 32">
<path d="M12.586 27.414l-10-10c-0.781-0.781-0.781-2.047 0-2.828l10-10c0.781-0.781 2.047-0.781 2.828 0s0.781 2.047 0 2.828l-6.586 6.586h19.172c1.105 0 2 0.895 2 2s-0.895 2-2 2h-19.172l6.586 6.586c0.39 0.39 0.586 0.902 0.586 1.414s-0.195 1.024-0.586 1.414c-0.781 0.781-2.047 0.781-2.828 0z"></path>
</symbol>
<symbol id="icon-eye" viewBox="0 0 32 32">
<path d="M16 6c-6.979 0-13.028 4.064-16 10 2.972 5.936 9.021 10 16 10s13.027-4.064 16-10c-2.972-5.936-9.021-10-16-10zM23.889 11.303c1.88 1.199 3.473 2.805 4.67 4.697-1.197 1.891-2.79 3.498-4.67 4.697-2.362 1.507-5.090 2.303-7.889 2.303s-5.527-0.796-7.889-2.303c-1.88-1.199-3.473-2.805-4.67-4.697 1.197-1.891 2.79-3.498 4.67-4.697 0.122-0.078 0.246-0.154 0.371-0.228-0.311 0.854-0.482 1.776-0.482 2.737 0 4.418 3.582 8 8 8s8-3.582 8-8c0-0.962-0.17-1.883-0.482-2.737 0.124 0.074 0.248 0.15 0.371 0.228v0zM16 13c0 1.657-1.343 3-3 3s-3-1.343-3-3 1.343-3 3-3 3 1.343 3 3z"></path>
</symbol>
<symbol id="icon-twitter" viewBox="0 0 32 32">
<path d="M32 7.075c-1.175 0.525-2.444 0.875-3.769 1.031 1.356-0.813 2.394-2.1 2.887-3.631-1.269 0.75-2.675 1.3-4.169 1.594-1.2-1.275-2.906-2.069-4.794-2.069-3.625 0-6.563 2.938-6.563 6.563 0 0.512 0.056 1.012 0.169 1.494-5.456-0.275-10.294-2.888-13.531-6.862-0.563 0.969-0.887 2.1-0.887 3.3 0 2.275 1.156 4.287 2.919 5.463-1.075-0.031-2.087-0.331-2.975-0.819 0 0.025 0 0.056 0 0.081 0 3.181 2.263 5.838 5.269 6.437-0.55 0.15-1.131 0.231-1.731 0.231-0.425 0-0.831-0.044-1.237-0.119 0.838 2.606 3.263 4.506 6.131 4.563-2.25 1.762-5.075 2.813-8.156 2.813-0.531 0-1.050-0.031-1.569-0.094 2.913 1.869 6.362 2.95 10.069 2.95 12.075 0 18.681-10.006 18.681-18.681 0-0.287-0.006-0.569-0.019-0.85 1.281-0.919 2.394-2.075 3.275-3.394z"></path>
</symbol>
<symbol id="icon-instagram" viewBox="0 0 32 32">
<path d="M16 2.881c4.275 0 4.781 0.019 6.462 0.094 1.563 0.069 2.406 0.331 2.969 0.55 0.744 0.288 1.281 0.638 1.837 1.194 0.563 0.563 0.906 1.094 1.2 1.838 0.219 0.563 0.481 1.412 0.55 2.969 0.075 1.688 0.094 2.194 0.094 6.463s-0.019 4.781-0.094 6.463c-0.069 1.563-0.331 2.406-0.55 2.969-0.288 0.744-0.637 1.281-1.194 1.837-0.563 0.563-1.094 0.906-1.837 1.2-0.563 0.219-1.413 0.481-2.969 0.55-1.688 0.075-2.194 0.094-6.463 0.094s-4.781-0.019-6.463-0.094c-1.563-0.069-2.406-0.331-2.969-0.55-0.744-0.288-1.281-0.637-1.838-1.194-0.563-0.563-0.906-1.094-1.2-1.837-0.219-0.563-0.481-1.413-0.55-2.969-0.075-1.688-0.094-2.194-0.094-6.463s0.019-4.781 0.094-6.463c0.069-1.563 0.331-2.406 0.55-2.969 0.288-0.744 0.638-1.281 1.194-1.838 0.563-0.563 1.094-0.906 1.838-1.2 0.563-0.219 1.412-0.481 2.969-0.55 1.681-0.075 2.188-0.094 6.463-0.094zM16 0c-4.344 0-4.887 0.019-6.594 0.094-1.7 0.075-2.869 0.35-3.881 0.744-1.056 0.412-1.95 0.956-2.837 1.85-0.894 0.888-1.438 1.781-1.85 2.831-0.394 1.019-0.669 2.181-0.744 3.881-0.075 1.713-0.094 2.256-0.094 6.6s0.019 4.887 0.094 6.594c0.075 1.7 0.35 2.869 0.744 3.881 0.413 1.056 0.956 1.95 1.85 2.837 0.887 0.887 1.781 1.438 2.831 1.844 1.019 0.394 2.181 0.669 3.881 0.744 1.706 0.075 2.25 0.094 6.594 0.094s4.888-0.019 6.594-0.094c1.7-0.075 2.869-0.35 3.881-0.744 1.050-0.406 1.944-0.956 2.831-1.844s1.438-1.781 1.844-2.831c0.394-1.019 0.669-2.181 0.744-3.881 0.075-1.706 0.094-2.25 0.094-6.594s-0.019-4.887-0.094-6.594c-0.075-1.7-0.35-2.869-0.744-3.881-0.394-1.063-0.938-1.956-1.831-2.844-0.887-0.887-1.781-1.438-2.831-1.844-1.019-0.394-2.181-0.669-3.881-0.744-1.712-0.081-2.256-0.1-6.6-0.1v0z"></path>
<path d="M16 7.781c-4.537 0-8.219 3.681-8.219 8.219s3.681 8.219 8.219 8.219 8.219-3.681 8.219-8.219c0-4.537-3.681-8.219-8.219-8.219zM16 21.331c-2.944 0-5.331-2.387-5.331-5.331s2.387-5.331 5.331-5.331c2.944 0 5.331 2.387 5.331 5.331s-2.387 5.331-5.331 5.331z"></path>
<path d="M26.462 7.456c0 1.060-0.859 1.919-1.919 1.919s-1.919-0.859-1.919-1.919c0-1.060 0.859-1.919 1.919-1.919s1.919 0.859 1.919 1.919z"></path>
</symbol>
<symbol id="icon-facebook" viewBox="0 0 32 32">
<path d="M19 6h5v-6h-5c-3.86 0-7 3.14-7 7v3h-4v6h4v16h6v-16h5l1-6h-6v-3c0-0.542 0.458-1 1-1z"></path>
</symbol>
<symbol id="icon-modal-mail" viewBox="0 0 32 32">
      <path d="M26.667 5.333h-21.333c-1.467 0-2.653 1.2-2.653 2.667l-0.013 16c0 1.467 1.2 2.667 2.667 2.667h21.333c1.467 0 2.667-1.2 2.667-2.667v-16c0-1.467-1.2-2.667-2.667-2.667zM26.133 11l-9.427 5.893c-0.427 0.267-0.987 0.267-1.413 0l-9.427-5.893c-0.333-0.213-0.533-0.573-0.533-0.96 0-0.893 0.973-1.427 1.733-0.96l8.933 5.587 8.933-5.587c0.76-0.467 1.733 0.067 1.733 0.96 0 0.387-0.2 0.747-0.533 0.96z"></path>
    </symbol>
    <symbol id="icon-modale-tel" viewBox="0 0 32 32">
      <path d="M24.882 19.773l-3.268-0.373c-0.785-0.090-1.557 0.18-2.11 0.733l-2.367 2.367c-3.641-1.853-6.626-4.825-8.478-8.478l2.38-2.38c0.553-0.553 0.823-1.325 0.733-2.11l-0.373-3.242c-0.154-1.299-1.248-2.277-2.56-2.277h-2.226c-1.454 0-2.663 1.209-2.573 2.663 0.682 10.987 9.469 19.761 20.443 20.443 1.454 0.090 2.663-1.119 2.663-2.573v-2.226c0.013-1.3-0.965-2.393-2.264-2.547z"></path>
    </symbol>
    <symbol id="icon-modal-name" viewBox="0 0 32 32">
      <path d="M16 16c2.947 0 5.333-2.387 5.333-5.333s-2.387-5.333-5.333-5.333c-2.947 0-5.333 2.387-5.333 5.333s2.387 5.333 5.333 5.333zM16 18.667c-3.56 0-10.667 1.787-10.667 5.333v1.333c0 0.733 0.6 1.333 1.333 1.333h18.667c0.733 0 1.333-0.6 1.333-1.333v-1.333c0-3.547-7.107-5.333-10.667-5.333z"></path>
    </symbol>
    <symbol id="icon-checkbox" viewBox="0 0 42 32">
      <path d="M6.263 15.205l-0.22-0.21-3.307 3.132 11.651 11.114 24.477-23.351-3.285-3.134-21.192 20.197-8.124-7.75z"></path>
    </symbol>
</defs>
</svg>
