<?xml version="1.0" standalone="no"?>
<!DOCTYPE svg PUBLIC "-//W3C//DTD SVG 20010904//EN"
 "http://www.w3.org/TR/2001/REC-SVG-20010904/DTD/svg10.dtd">
<svg version="1.0" xmlns="http://www.w3.org/2000/svg"
 width="512.000000pt" height="512.000000pt" viewBox="0 0 512.000000 512.000000"
 preserveAspectRatio="xMidYMid meet">
<metadata>
Created by potrace 1.14, written by Peter Selinger 2001-2017
</metadata>
<g transform="translate(0.000000,512.000000) scale(0.100000,-0.100000)"
fill="#000000" stroke="none">
<path d="M1805 5106 c-225 -47 -400 -172 -520 -371 -129 -215 -148 -492 -48
-720 60 -135 43 -118 914 -998 350 -353 376 -377 409 -377 33 0 61 26 458 427
727 735 774 783 818 859 81 137 115 272 109 434 -14 361 -270 673 -610 743
-262 53 -515 -20 -708 -207 -32 -31 -60 -56 -63 -56 -4 0 -38 30 -77 66 -89
82 -183 138 -295 177 -74 25 -105 30 -207 32 -70 2 -145 -2 -180 -9z"/>
<path d="M162 3068 c-58 -154 -86 -274 -106 -448 -13 -111 -13 -314 -2 -415
90 -768 562 -1380 1216 -1578 63 -19 131 -38 150 -41 79 -12 177 -27 210 -31
42 -5 298 -6 355 -1 53 5 192 25 215 31 43 12 83 16 90 9 5 -5 11 -37 14 -72
8 -89 24 -147 62 -227 40 -85 97 -145 171 -182 55 -27 58 -27 272 -27 252 -1
379 8 536 39 162 31 224 47 355 91 414 140 746 401 995 784 177 271 307 611
351 915 3 22 7 51 10 65 23 131 23 499 -1 630 -3 14 -7 41 -10 60 -3 19 -8 46
-10 60 -3 14 -7 35 -10 48 -17 92 -102 345 -114 340 -3 -2 -51 -33 -106 -70
-88 -58 -270 -156 -375 -201 -119 -52 -366 -124 -480 -141 -19 -3 -57 -10 -85
-15 -27 -6 -68 -13 -90 -16 -59 -8 -260 -53 -340 -76 -354 -102 -639 -282
-819 -519 -58 -76 -74 -103 -121 -198 -38 -76 -42 -81 -52 -60 -6 13 -26 55
-44 93 -74 155 -164 281 -293 411 -184 183 -415 303 -721 372 -101 24 -104 24
-270 53 -348 60 -630 166 -861 325 -36 24 -67 44 -69 44 -2 0 -12 -24 -23 -52z"/>
</g>
</svg>
